<svg xmlns="http://www.w3.org/2000/svg" xmlns:xlink="http://www.w3.org/1999/xlink" width="40" zoomAndPan="magnify" viewBox="0 0 30 30.000001" height="40" preserveAspectRatio="xMidYMid meet" version="1.0"><defs><clipPath id="ee92828ecc"><path d="M 2.394531 4.699219 L 27.796875 4.699219 L 27.796875 24.296875 L 2.394531 24.296875 Z M 2.394531 4.699219 " clip-rule="nonzero"/></clipPath></defs><g clip-path="url(#ee92828ecc)"><path stroke-linecap="butt" transform="matrix(0.111412, 0, 0, 0.111412, -717.640756, -3.323225)" fill-opacity="1" fill="#38b6ff" fill-rule="nonzero" stroke-linejoin="round" d="M 6506.3972 72.497854 C 6524.6992 72.988712 6538.548415 73.234141 6547.909783 73.234141 L 6556.324495 73.234141 L 6564.739208 73.970428 L 6564.739208 73.234141 L 6566.106599 73.970428 L 6637.140797 73.970428 C 6637.631656 73.970428 6637.877085 74.180796 6637.877085 74.601532 C 6638.332882 74.601532 6638.613372 74.391164 6638.613372 73.970428 L 6642.154564 74.601532 L 6649.096702 74.601532 C 6649.903112 74.601532 6652.953445 77.651865 6658.247702 83.752532 L 6688.505606 114.746723 L 6688.505606 117.551627 C 6688.505606 118.358037 6686.156498 120.742206 6681.423222 124.634011 C 6681.423222 125.194991 6680.511629 126.352014 6678.65338 128.070018 C 6666.522169 140.76221 6657.826966 150.579374 6652.637893 157.591635 C 6646.221675 165.901164 6621.573579 194.055389 6578.763729 242.054313 C 6577.080786 245.805872 6574.521311 247.699182 6571.085304 247.699182 C 6567.999909 245.630565 6556.745231 232.061841 6537.286208 206.922887 C 6524.979691 191.776405 6506.712752 168.320393 6482.485392 136.589915 L 6463.447105 112.678106 L 6463.447105 111.205532 C 6489.778143 85.821149 6504.118216 72.918589 6506.3972 72.497854 Z M 6466.953235 112.678106 C 6479.99604 127.57916 6493.319335 144.654014 6506.993243 163.937731 C 6524.664139 185.360186 6540.371603 205.029577 6554.115633 223.016025 L 6571.716407 244.157991 C 6572.663062 244.157991 6573.15392 243.912562 6573.15392 243.421703 C 6605.655748 206.71252 6623.22146 186.552271 6625.886119 182.976018 C 6626.97302 182.905895 6634.476138 174.456121 6648.500659 157.591635 C 6655.302552 148.30039 6667.503885 134.731666 6684.964414 116.81534 C 6684.964414 116.429666 6680.757058 111.97688 6672.307284 103.527106 L 6647.028085 77.406436 L 6603.446886 77.406436 L 6596.364503 76.775333 L 6596.364503 77.406436 L 6595.032173 76.775333 C 6593.559598 76.775333 6592.823311 76.9857 6592.823311 77.406436 L 6588.686077 76.775333 C 6571.996897 76.775333 6545.490553 76.529904 6509.202105 76.039045 C 6509.202105 75.548187 6508.956675 75.302758 6508.465817 75.302758 C 6508.465817 75.793616 6508.220388 76.039045 6507.72953 76.039045 L 6507.72953 75.302758 C 6504.468829 77.581743 6494.406235 86.767804 6477.471626 102.790819 C 6471.265775 107.839647 6467.794706 111.135409 6466.953235 112.678106 Z M 6511.270721 85.926333 L 6521.158009 85.926333 C 6521.824173 85.926333 6525.575733 88.976666 6532.412687 95.077333 L 6532.412687 115.483011 C 6532.412687 115.903746 6532.167258 116.079053 6531.676399 116.079053 L 6532.412687 117.551627 L 6532.412687 118.287915 C 6532.412687 118.70865 6532.167258 118.883957 6531.676399 118.883957 C 6532.167258 119.865673 6532.412687 120.601961 6532.412687 121.092819 L 6531.676399 124.634011 L 6532.412687 124.634011 L 6531.676399 125.96634 L 6531.676399 137.221018 C 6531.676399 144.443646 6531.43097 156.154121 6530.940112 172.352443 L 6529.572721 173.088731 L 6528.135208 173.088731 C 6528.135208 170.564317 6521.087886 160.712091 6506.993243 143.567114 C 6497.070894 130.769738 6489.357407 121.162942 6483.817722 114.746723 L 6483.817722 113.274149 C 6483.817722 110.118631 6492.968722 101.002693 6511.270721 85.926333 Z M 6573.15392 87.293723 L 6608.320407 87.293723 L 6615.40279 88.030011 L 6615.40279 92.903532 C 6612.948499 94.446229 6601.238024 103.842658 6580.236303 121.092819 C 6576.484744 123.617233 6569.893219 128.771244 6560.461729 136.589915 C 6559.585196 136.589915 6559.129399 137.045712 6559.129399 137.957305 L 6556.324495 137.957305 L 6556.324495 105.595723 C 6556.324495 105.104865 6556.534863 104.859436 6556.920537 104.859436 L 6556.324495 103.527106 L 6556.324495 102.790819 C 6556.324495 102.299961 6556.534863 102.054532 6556.920537 102.054532 C 6556.920537 101.563673 6556.745231 101.318244 6556.324495 101.318244 L 6556.920537 97.917298 L 6556.920537 89.36234 C 6556.920537 87.959888 6562.355039 87.293723 6573.15392 87.293723 Z M 6487.358913 112.678106 C 6512.252438 144.969566 6525.856223 162.079482 6528.135208 163.937731 L 6528.135208 130.243819 L 6528.871495 125.230053 L 6528.135208 125.230053 L 6528.871495 123.897723 L 6528.871495 122.425148 L 6528.135208 121.092819 L 6528.871495 121.092819 L 6528.135208 119.620244 L 6528.871495 118.287915 L 6528.135208 116.81534 L 6528.871495 115.483011 C 6528.871495 114.992152 6528.626066 114.746723 6528.135208 114.746723 L 6528.871495 111.205532 L 6528.871495 96.444723 C 6528.380637 95.2877 6525.330304 92.728225 6519.685434 88.731237 L 6512.603051 88.731237 C 6496.580036 103.246616 6488.165323 111.205532 6487.358913 112.678106 Z M 6573.890208 90.834915 L 6560.461729 90.834915 L 6560.461729 98.51334 C 6560.461729 101.107877 6560.2163 104.403639 6559.725441 108.400627 C 6560.2163 109.207037 6560.461729 110.153693 6560.461729 111.205532 C 6559.970871 111.205532 6559.725441 111.450961 6559.725441 111.941819 L 6560.461729 111.941819 L 6559.725441 113.274149 L 6559.725441 132.312436 C 6560.566913 132.312436 6570.874936 124.108091 6590.754694 107.66434 C 6602.21974 99.03926 6608.776204 93.67488 6610.389024 91.571202 C 6606.672526 91.571202 6604.779215 91.080344 6604.779215 90.098628 L 6603.446886 90.834915 L 6601.974311 90.834915 C 6601.483453 90.834915 6601.238024 90.589486 6601.238024 90.098628 L 6599.905694 90.834915 L 6598.433119 90.834915 C 6598.012384 90.834915 6597.837077 90.589486 6597.837077 90.098628 L 6596.364503 90.834915 C 6595.873644 90.834915 6595.628215 90.589486 6595.628215 90.098628 L 6594.295886 90.834915 L 6575.993886 90.834915 C 6575.503028 90.834915 6575.257598 90.589486 6575.257598 90.098628 Z M 6645.55551 92.903532 L 6647.028085 92.903532 C 6654.355897 100.231344 6661.823954 108.681118 6669.467318 118.287915 C 6645.800939 146.196712 6628.235227 165.901164 6616.735119 177.366209 L 6615.998832 177.366209 C 6615.052177 177.296087 6610.353962 172.352443 6601.974311 162.605401 C 6593.279108 151.771459 6588.335464 146.372018 6587.213503 146.372018 L 6587.213503 142.199723 C 6589.001629 141.147884 6600.712104 131.050229 6622.344928 111.941819 C 6624.974525 110.153693 6632.688012 103.807597 6645.55551 92.903532 Z M 6645.55551 97.181011 L 6591.490982 144.303401 L 6591.490982 145.635731 C 6592.367514 145.635731 6598.222752 152.227256 6609.056694 165.410305 C 6613.544541 170.529255 6616.104016 173.088731 6616.735119 173.088731 C 6648.640905 137.361263 6664.593797 119.304693 6664.593797 118.883957 L 6664.593797 118.287915 C 6660.772115 112.993658 6654.42602 105.946336 6645.55551 97.181011 Z M 6566.807825 159.06421 C 6569.682851 159.06421 6574.591434 163.972792 6581.603694 173.825018 C 6582.164675 173.895141 6588.510771 180.942462 6600.641982 194.931922 C 6598.18769 198.613359 6589.492487 208.220156 6574.521311 223.752313 L 6573.15392 224.4886 L 6571.716407 224.4886 C 6570.664568 223.927619 6565.265127 217.336094 6555.588208 204.714025 L 6554.85192 204.714025 L 6554.85192 189.322114 C 6554.85192 184.623899 6555.09735 177.576577 6555.588208 168.21521 C 6554.606491 168.21521 6554.115633 167.724351 6554.115633 166.742635 C 6554.781798 166.356961 6556.429679 166.146593 6559.129399 166.146593 L 6558.393112 164.674018 L 6559.725441 163.937731 C 6559.725441 164.428589 6559.970871 164.674018 6560.461729 164.674018 C 6560.461729 163.867608 6562.600468 161.974298 6566.807825 159.06421 Z M 6559.129399 170.283826 L 6559.129399 179.434826 C 6559.129399 180.486665 6558.88397 181.433321 6558.393112 182.239731 C 6558.393112 182.730589 6558.638541 182.976018 6559.129399 182.976018 C 6558.638541 188.515704 6558.393112 192.512692 6558.393112 194.931922 L 6558.393112 200.576792 C 6558.393112 202.505163 6563.336756 209.307056 6573.15392 220.947408 C 6587.318687 204.994516 6594.821805 197.0356 6595.628215 197.0356 L 6595.628215 194.931922 C 6582.02443 179.014091 6572.663062 168.425577 6567.544112 163.201443 C 6562.004426 167.373738 6559.199522 169.722846 6559.129399 170.283826 Z M 6559.129399 170.283826 " stroke="#000000" stroke-width="1" stroke-opacity="1" stroke-miterlimit="2"/></g></svg>