<svg xmlns="http://www.w3.org/2000/svg" xmlns:xlink="http://www.w3.org/1999/xlink" width="40" zoomAndPan="magnify" viewBox="0 0 30 30.000001" height="40" preserveAspectRatio="xMidYMid meet" version="1.0"><defs><clipPath id="f298314322"><path d="M 0.484375 3.210938 L 29.515625 3.210938 L 29.515625 25.710938 L 0.484375 25.710938 Z M 0.484375 3.210938 " clip-rule="nonzero"/></clipPath></defs><g clip-path="url(#f298314322)"><path stroke-linecap="butt" transform="matrix(0.128275, 0, 0, 0.128275, -828.529139, -6.023852)" fill-opacity="1" fill="#38b6ff" fill-rule="nonzero" stroke-linejoin="round" d="M 6506.387068 72.509771 C 6524.719255 72.997005 6538.544525 73.240622 6547.893331 73.240622 L 6556.328573 73.240622 L 6564.733362 73.971473 L 6564.733362 73.240622 L 6566.103708 73.971473 L 6637.118091 73.971473 C 6637.605325 73.971473 6637.848942 74.184638 6637.848942 74.580516 C 6638.336177 74.580516 6638.610246 74.397803 6638.610246 73.971473 L 6642.142694 74.580516 L 6649.085781 74.580516 C 6649.907989 74.580516 6652.953202 77.62573 6658.251874 83.746609 L 6688.521298 114.746884 L 6688.521298 117.548481 C 6688.521298 118.370688 6686.146031 120.715503 6681.42595 124.643829 C 6681.42595 125.191967 6680.512386 126.349148 6678.654806 128.054468 C 6666.504403 140.753009 6657.825544 150.589049 6652.648681 157.59304 C 6646.22328 165.906474 6621.587501 194.044248 6578.771797 242.067268 C 6577.066478 245.81288 6574.508498 247.670461 6571.097859 247.670461 C 6567.991741 245.66062 6556.72445 232.048515 6537.265535 206.925502 C 6524.993324 191.760338 6506.722042 168.342645 6482.482141 136.611518 L 6463.419104 112.676139 L 6463.419104 111.214436 C 6489.790654 85.817354 6504.13361 72.905648 6506.387068 72.509771 Z M 6466.982004 112.676139 C 6479.985066 127.567234 6493.323102 144.650882 6506.996111 163.927085 C 6524.65835 185.334937 6540.371653 205.037469 6554.105567 223.034682 L 6571.706902 244.138013 C 6572.68137 244.138013 6573.168604 243.894396 6573.168604 243.407162 C 6605.630582 206.712337 6623.231917 186.553022 6625.911705 182.990122 C 6626.947077 182.898766 6634.499207 174.433072 6648.476738 157.59304 C 6655.328469 148.305139 6667.478871 134.723486 6684.98885 116.817629 C 6684.98885 116.421752 6680.756003 111.97574 6672.290309 103.510046 L 6647.015036 77.382112 L 6603.438028 77.382112 L 6596.373132 76.77307 L 6596.373132 77.382112 L 6595.033238 76.77307 C 6593.541084 76.77307 6592.810232 76.986235 6592.810232 77.382112 L 6588.668742 76.77307 C 6571.980971 76.77307 6545.487612 76.529453 6509.188665 76.042218 C 6509.188665 75.554984 6508.945048 75.311367 6508.457814 75.311367 C 6508.457814 75.798601 6508.244649 76.042218 6507.726962 76.042218 L 6507.726962 75.311367 C 6504.468584 77.595277 6494.388927 86.761371 6477.457539 102.779194 C 6471.275755 107.834249 6467.773759 111.12308 6466.982004 112.676139 Z M 6511.289862 85.939163 L 6521.156355 85.939163 C 6521.826302 85.939163 6525.571914 88.984377 6532.393193 95.105256 L 6532.393193 115.477735 C 6532.393193 115.873613 6532.149576 116.086778 6531.662342 116.086778 L 6532.393193 117.548481 L 6532.393193 118.279332 C 6532.393193 118.705662 6532.149576 118.888375 6531.662342 118.888375 C 6532.149576 119.862843 6532.393193 120.593694 6532.393193 121.080929 L 6531.662342 124.643829 L 6532.393193 124.643829 L 6531.662342 125.983723 L 6531.662342 137.220561 C 6531.662342 144.437717 6531.418725 156.16179 6530.931491 172.362327 L 6529.591597 173.093178 L 6528.129894 173.093178 C 6528.129894 170.565651 6521.064998 160.729611 6506.996111 143.554605 C 6497.068715 130.764708 6489.364324 121.172285 6483.822035 114.746884 L 6483.822035 113.285182 C 6483.822035 110.118159 6492.957676 100.982518 6511.289862 85.939163 Z M 6573.168604 87.279057 L 6608.31037 87.279057 L 6615.405718 88.009908 L 6615.405718 92.88225 C 6612.969547 94.435309 6601.245474 103.845019 6580.263952 121.080929 C 6576.487887 123.608456 6569.910225 128.785319 6560.470063 136.611518 C 6559.586951 136.611518 6559.130169 137.037848 6559.130169 137.951412 L 6556.328573 137.951412 L 6556.328573 105.580791 C 6556.328573 105.093557 6556.541737 104.84994 6556.937615 104.84994 L 6556.328573 103.510046 L 6556.328573 102.779194 C 6556.328573 102.29196 6556.541737 102.048343 6556.937615 102.048343 C 6556.937615 101.561109 6556.72445 101.317492 6556.328573 101.317492 L 6556.937615 97.906853 L 6556.937615 89.349802 C 6556.937615 87.979456 6562.327643 87.279057 6573.168604 87.279057 Z M 6487.354483 112.676139 C 6512.264331 144.985856 6525.845984 162.069505 6528.129894 163.927085 L 6528.129894 130.247022 L 6528.860745 125.252871 L 6528.129894 125.252871 L 6528.860745 123.912977 L 6528.860745 122.451275 L 6528.129894 121.080929 L 6528.860745 121.080929 L 6528.129894 119.619226 L 6528.860745 118.279332 L 6528.129894 116.817629 L 6528.860745 115.477735 C 6528.860745 114.990501 6528.617128 114.746884 6528.129894 114.746884 L 6528.860745 111.214436 L 6528.860745 96.44515 C 6528.373511 95.287969 6525.328297 92.729989 6519.694652 88.740759 L 6512.629756 88.740759 C 6496.58148 103.235976 6488.176691 111.214436 6487.354483 112.676139 Z M 6573.899455 90.811505 L 6560.470063 90.811505 L 6560.470063 98.515895 C 6560.470063 101.104327 6560.226446 104.42361 6559.739212 108.41284 C 6560.226446 109.204595 6560.470063 110.148612 6560.470063 111.214436 C 6559.982829 111.214436 6559.739212 111.458053 6559.739212 111.945288 L 6560.470063 111.945288 L 6559.739212 113.285182 L 6559.739212 132.317767 C 6560.56142 132.317767 6570.884694 124.09569 6590.739487 107.681988 C 6602.219943 99.033582 6608.767152 93.674006 6610.411567 91.542356 C 6606.665954 91.542356 6604.777922 91.055122 6604.777922 90.080653 L 6603.438028 90.811505 L 6601.976325 90.811505 C 6601.489091 90.811505 6601.245474 90.567888 6601.245474 90.080653 L 6599.90558 90.811505 L 6598.443878 90.811505 C 6598.017548 90.811505 6597.834835 90.567888 6597.834835 90.080653 L 6596.373132 90.811505 C 6595.855446 90.811505 6595.642281 90.567888 6595.642281 90.080653 L 6594.302387 90.811505 L 6575.970201 90.811505 C 6575.482967 90.811505 6575.239349 90.567888 6575.239349 90.080653 Z M 6645.553333 92.88225 L 6647.015036 92.88225 C 6654.354001 100.221215 6661.845226 108.686909 6669.488712 118.279332 C 6645.79695 146.203941 6628.226067 165.906474 6616.745612 177.356477 L 6616.01476 177.356477 C 6615.040292 177.295573 6610.350663 172.362327 6601.976325 162.587191 C 6593.267014 151.776682 6588.36422 146.356202 6587.207039 146.356202 L 6587.207039 142.214711 C 6589.003715 141.148887 6600.727788 131.069229 6622.348805 111.945288 C 6624.967689 110.148612 6632.702531 103.814567 6645.553333 92.88225 Z M 6645.553333 97.176001 L 6591.470338 144.285457 L 6591.470338 145.625351 C 6592.383902 145.625351 6598.230713 152.233464 6609.071673 165.41924 C 6613.517685 170.535199 6616.106117 173.093178 6616.745612 173.093178 C 6648.659451 137.372822 6664.585918 119.314705 6664.585918 118.888375 L 6664.585918 118.279332 C 6660.779401 113.011112 6654.445357 105.946217 6645.553333 97.176001 Z M 6566.83456 159.054743 C 6569.666608 159.054743 6574.599855 163.987989 6581.603846 173.824029 C 6582.151984 173.915386 6588.516481 180.949829 6600.636431 194.957812 C 6598.20026 198.612069 6589.490949 208.204492 6574.508498 223.765533 L 6573.168604 224.496385 L 6571.706902 224.496385 C 6570.641077 223.917794 6565.281501 217.340133 6555.597721 204.702496 L 6554.86687 204.702496 L 6554.86687 189.324167 C 6554.86687 184.604086 6555.110487 177.569642 6555.597721 168.220836 C 6554.623253 168.220836 6554.105567 167.733602 6554.105567 166.759134 C 6554.775514 166.332804 6556.450381 166.150091 6559.130169 166.150091 L 6558.399318 164.688388 L 6559.739212 163.927085 C 6559.739212 164.444771 6559.982829 164.688388 6560.470063 164.688388 C 6560.470063 163.866181 6562.601713 161.978148 6566.83456 159.054743 Z M 6559.130169 170.291581 L 6559.130169 179.457675 C 6559.130169 180.493047 6558.886552 181.437063 6558.399318 182.259271 C 6558.399318 182.746505 6558.642935 182.990122 6559.130169 182.990122 C 6558.642935 188.532411 6558.399318 192.491189 6558.399318 194.957812 L 6558.399318 200.561005 C 6558.399318 202.509942 6563.332564 209.300769 6573.168604 220.963937 C 6587.328848 205.007017 6594.820073 197.028557 6595.642281 197.028557 L 6595.642281 194.957812 C 6582.030176 179.000893 6572.68137 168.403549 6567.534959 163.196234 C 6562.023122 167.368176 6559.221526 169.712991 6559.130169 170.291581 Z M 6559.130169 170.291581 " stroke="#000000" stroke-width="1" stroke-opacity="1" stroke-miterlimit="2"/></g></svg>